<svg xmlns="http://www.w3.org/2000/svg" viewBox="48 144 867.4 388" font-family="ui-sans-serif,system-ui,Arial" font-size="13">
<rect x="48" y="144" width="867.4" height="388" fill="#ffffff"/>
<rect x="72" y="168" width="184" height="118" rx="10" fill="#f8fafc" stroke="#cbd5e1"/>
<text x="84" y="185" fill="#64748b" font-size="11" letter-spacing="0.5">EDGE</text>
<rect x="316" y="168" width="184" height="118" rx="10" fill="#f8fafc" stroke="#cbd5e1"/>
<text x="328" y="185" fill="#64748b" font-size="11" letter-spacing="0.5">IDENTITY</text>
<rect x="560" y="168" width="184" height="246" rx="10" fill="#f8fafc" stroke="#cbd5e1"/>
<text x="572" y="185" fill="#64748b" font-size="11" letter-spacing="0.5">APP</text>
<rect x="560" y="374" width="184" height="118" rx="10" fill="#f8fafc" stroke="#cbd5e1"/>
<text x="572" y="391" fill="#64748b" font-size="11" letter-spacing="0.5">DATA</text>
<path d="M 238,240 L 334,240" fill="none" stroke="#2563eb" stroke-width="2"/>
<path d="M 482,240 L 578,240" fill="none" stroke="#2563eb" stroke-width="2"/>
<path d="M 652,268 L 652,304 L 652,304 L 652,340" fill="none" stroke="#94a3b8" stroke-width="1.5" stroke-dasharray="4 3"/>
<text x="662" y="298" fill="#94a3b8" font-size="10">uses (x-depends-on: POST /charge)</text>
<path d="M 652,268 L 652,343 L 652,343 L 652,418" fill="none" stroke="#94a3b8" stroke-width="1.5" stroke-dasharray="4 3"/>
<text x="662" y="337" fill="#94a3b8" font-size="10">uses (x-depends-on: orders datastore)</text>
<rect x="90" y="212" width="148" height="56" rx="8" fill="#ffffff" stroke="#334155" stroke-width="1.5"/>
<text x="164" y="244" text-anchor="middle" fill="#0f172a">orders.example.com</text>
<rect x="334" y="212" width="148" height="56" rx="8" fill="#ffffff" stroke="#334155" stroke-width="1.5"/>
<text x="408" y="244" text-anchor="middle" fill="#0f172a">oauth2</text>
<rect x="578" y="212" width="148" height="56" rx="8" fill="#ffffff" stroke="#334155" stroke-width="1.5"/>
<text x="652" y="244" text-anchor="middle" fill="#0f172a">Orders API</text>
<rect x="578" y="340" width="148" height="56" rx="8" fill="#ffffff" stroke="#94a3b8" stroke-width="1.5" stroke-dasharray="6 4"/>
<text x="652" y="372" text-anchor="middle" fill="#0f172a">Payments API</text>
<rect x="578" y="418" width="148" height="56" rx="8" fill="#ffffff" stroke="#94a3b8" stroke-width="1.5" stroke-dasharray="6 4"/>
<text x="652" y="450" text-anchor="middle" fill="#0f172a">Postgres</text>
</svg>